<?xml version="1.0" standalone="no"?>
<!DOCTYPE svg PUBLIC "-//W3C//DTD SVG 1.1//EN" "http://www.w3.org/Graphics/SVG/1.1/DTD/svg11.dtd" >
<svg xmlns="http://www.w3.org/2000/svg">
<metadata>
Created by FontForge 20120731 at Wed Jul 27 16:16:23 2016
 By admin
</metadata>
<defs>
<font id="iconfont" horiz-adv-x="1024" >
  <font-face 
    font-family="iconfont"
    font-weight="500"
    font-stretch="normal"
    units-per-em="1024"
    panose-1="2 0 6 3 0 0 0 0 0 0"
    ascent="896"
    descent="-128"
    x-height="792"
    bbox="0 -128 1027 881"
    underline-thickness="50"
    underline-position="-100"
    unicode-range="U+0078-E647"
  />
<missing-glyph horiz-adv-x="374" 
d="M34 0v682h272v-682h-272zM68 34h204v614h-204v-614z" />
    <glyph glyph-name=".notdef" horiz-adv-x="374" 
d="M34 0v682h272v-682h-272zM68 34h204v614h-204v-614z" />
    <glyph glyph-name=".null" horiz-adv-x="0" 
 />
    <glyph glyph-name="nonmarkingreturn" horiz-adv-x="341" 
 />
    <glyph glyph-name="x" unicode="x" horiz-adv-x="1001" 
d="M281 543q-27 -1 -53 -1h-83q-18 0 -36.5 -6t-32.5 -18.5t-23 -32t-9 -45.5v-76h912v41q0 16 -0.5 30t-0.5 18q0 13 -5 29t-17 29.5t-31.5 22.5t-49.5 9h-133v-97h-438v97zM955 310v-52q0 -23 0.5 -52t0.5 -58t-10.5 -47.5t-26 -30t-33 -16t-31.5 -4.5q-14 -1 -29.5 -0.5
t-29.5 0.5h-32l-45 128h-439l-44 -128h-29h-34q-20 0 -45 1q-25 0 -41 9.5t-25.5 23t-13.5 29.5t-4 30v167h911zM163 247q-12 0 -21 -8.5t-9 -21.5t9 -21.5t21 -8.5q13 0 22 8.5t9 21.5t-9 21.5t-22 8.5zM316 123q-8 -26 -14 -48q-5 -19 -10.5 -37t-7.5 -25t-3 -15t1 -14.5
t9.5 -10.5t21.5 -4h37h67h81h80h64h36q23 0 34 12t2 38q-5 13 -9.5 30.5t-9.5 34.5q-5 19 -11 39h-368zM336 498v228q0 11 2.5 23t10 21.5t20.5 15.5t34 6h188q31 0 51.5 -14.5t20.5 -52.5v-227h-327z" />
    <glyph glyph-name="uniE600" unicode="&#xe600;" 
d="M192 448h160v-384h-160v384zM704 384h160v-320h-160v320zM416 576h224v-512h-224v512zM224 544h32v-64h-32v64zM288 544h32v-64h-32v64zM736 480h32v-64h-32v64zM480 672h32v-64h-32v64zM544 672h32v-64h-32v64zM800 480h32v-64h-32v64z" />
    <glyph glyph-name="uniE601" unicode="&#xe601;" 
d="M800 608v-96h-192v96h-160v-96h-192v96h-64v-512h672v512h-64zM768 256h-480v32h480v-32zM768 352h-480v32h480v-32zM320 672h64v-128h-64v128zM672 672h64v-128h-64v128z" />
    <glyph glyph-name="uniE602" unicode="&#xe602;" 
d="M662 365v109l-73 -109h73zM528 736q-154 0 -261 -107t-107 -261t107 -261t261 -107h19l349 349v19q0 154 -107 261t-261 107zM502 307v-57h-214q4 30 22 57q20 29 68 77q41 37 51 51q13 17 13 39t-10 31.5t-29 9.5q-20 0 -29 -13q-12 -12 -12 -38l-61 6q5 49 35 74
q27 22 70 22q48 0 74 -25q26 -22 26 -64q0 -16 -7 -42q-3 -14 -25 -41q-7 -10 -39 -42q-7 -7 -16 -15.5t-13.5 -12.5t-5.5 -7q-2 -2 -6.5 -5.5t-6.5 -7.5h115v3zM762 310h-39v-64h-57v64h-132v55l138 201h51v-201h39v-55z" />
    <glyph glyph-name="uniE603" unicode="&#xe603;" 
d="M813 320l-13 -13v-211h-544v224h-64v-224v-64h64h544h64v64v224h-51zM371 384l-19 -19l173 -173l176 173l-19 19h-74v160h74l19 19l-176 173l-173 -173l19 -19h77v-160h-77z" />
    <glyph glyph-name="uniE604" unicode="&#xe604;" 
d="M790 224l-166 -170l-70 71l-42 -42l112 -115l42 42l166 172zM698 301q38 0 67 -10v477h-541v-704h243v6q0 94 68.5 162.5t162.5 68.5zM288 640h416v-32h-416v32zM288 544h416v-32h-416v32zM288 448h416v-32h-416v32zM288 352h192v-32h-192v32z" />
    <glyph glyph-name="uniE605" unicode="&#xe605;" 
d="M845 621q-19 19 -45 19t-45 -19l90 -90q19 19 19 45t-19 45zM799 486l-181 -181l-90 91l181 181zM435 211l138 48l-90 90zM800 371v-211h-544v416h339l64 64h-403h-64v-64v-416v-64h64h544h64v64v275z" />
    <glyph glyph-name="uniE606" unicode="&#xe606;" 
d="M672 736h-448v-576h448v576zM288 608h160v-32h-160v32zM608 288h-320v32h320v-32zM608 384h-320v32h320v-32zM608 480h-320v32h320v-32zM704 608v-480h-320v-96h416v576h-96z" />
    <glyph glyph-name="uniE607" unicode="&#xe607;" 
d="M160 640v-544h736v544h-736zM640 512h64v-32h-64v32zM432 544q46 0 79 -33t33 -79t-33 -79t-79 -33t-79 33t-33 79q0 47 33 79.5t79 32.5zM291 189l13 105l38 32q38 -32 87 -32t86 32l39 -32l12 -105h-275zM768 192h-128v32h128v-32zM768 288h-128v32h128v-32zM768 384
h-128v32h128v-32z" />
    <glyph glyph-name="uniE608" unicode="&#xe608;" 
d="M288 189h96v-157h-96v157zM448 285h96v-253h-96v253zM608 384h96v-352h-96v352zM768 480h96v-448h-96v448zM746 704v-3l35 -32l-128 -125h-189v-6l-272 -269l45 -45l262 256h173v13l10 -10l144 141l35 -35h3v115h-118z" />
    <glyph glyph-name="uniE609" unicode="&#xe609;" 
d="M810 576h-42v-288h-131q0 -43 -31.5 -69.5t-77.5 -26.5t-77.5 26.5t-31.5 69.5h-131v288h-42l-54 -266v-246h672v246zM704 672h-352v-320h352v320zM640 480h-224v32h224v-32zM640 576h-224v32h224v-32z" />
    <glyph glyph-name="uniE60A" unicode="&#xe60a;" 
d="M646 672q-73 0 -134 -38.5t-93 -102.5q-30 13 -73 13q-77 0 -131.5 -52.5t-54.5 -126.5q0 -61 39.5 -108.5t101.5 -64.5l179 256l179 -256q101 2 170.5 70.5t69.5 166.5q-2 101 -76 172t-177 71zM384 192h32v-96h128v96h26l-93 128z" />
    <glyph glyph-name="uniE60B" unicode="&#xe60b;" 
d="M192 672v-413v-3v-160l170 160h502v416h-672zM768 416h-480v32h480v-32zM768 512h-480v32h480v-32z" />
    <glyph glyph-name="uniE60C" unicode="&#xe60c;" 
d="M896 358v87l-61 19q-4 30 -22 67l38 55l-51 67l-61 -23q-29 30 -57 42v67l-80 29l-39 -54q-6 0 -17.5 1.5t-17.5 1.5q-22 0 -35 -3l-39 54l-80 -26v-67q-37 -21 -57 -41l-61 19l-51 -67l38 -55q-9 -22 -22 -67l-61 -22v-87l64 -19q4 -31 22 -67l-38 -55l48 -67l64 23
q20 -21 58 -42v-67l80 -26l38 55q6 0 17.5 -2t17.5 -2q23 0 35 4l39 -55l80 26v67q38 26 57 42l64 -23l48 67l-38 55q10 22 22 67zM320 400q0 89 61 151.5t147 62.5t147 -62.5t61 -151.5t-60.5 -150t-147.5 -61q-86 0 -147 62t-61 149z" />
    <glyph glyph-name="uniE60D" unicode="&#xe60d;" 
d="M689 556q6 0 10.5 4t4.5 11v92q0 6 -4 10.5t-11 4.5q-16 0 -16 -15v-95q5 -12 16 -12zM891 794h-405q-34 0 -55 -23.5t-21 -58.5v-738h563v738q0 34 -24 58t-58 24zM689 714q59 0 101 -42t42 -101.5t-42 -101t-101.5 -41.5t-101.5 41.5t-42 101.5q0 58 42.5 100.5
t101.5 42.5zM896 102h-410v52h410v-52zM896 230h-410v52h410v-52zM51 323v-349h282v128h-179v52h179v76h-179v52h179v128h-200q-34 0 -58 -26t-24 -61z" />
    <glyph glyph-name="uniE60E" unicode="&#xe60e;" 
d="M256 742h77v-153h-77v153zM691 742h77v-153h-77v153zM819 666v-128h-179v128h-256v-128h-179v128h-103v-666h820v666h-103zM845 256h-666v51h666v-51zM845 384h-666v51h666v-51z" />
    <glyph glyph-name="uniE610" unicode="&#xe610;" 
d="M950 54l-141 141q-23 23 -56 23q69 97 69 215q0 100 -50 185.5t-135.5 135.5t-186 50t-186 -50t-135.5 -135.5t-50 -186t50 -186t135.5 -135.5t186.5 -50q123 0 227 80q0 -31 23 -54l141 -141q23 -23 54 -23t54 23t23 54t-23 54zM451 138q-121 0 -208 87t-87 208
t87 207.5t208 86.5t207.5 -86.5t86.5 -207.5q0 -122 -86 -208.5t-208 -86.5z" />
    <glyph glyph-name="uniE611" unicode="&#xe611;" 
d="M896 640h-51v-384h-177q0 -56 -41 -90.5t-102 -34.5t-102.5 34.5t-41.5 90.5h-176v384h-51l-77 -343v-323h896v323zM768 794h-486v-436h486v436zM691 512h-333v51h333v-51zM691 640h-333v51h333v-51z" />
    <glyph glyph-name="uniE612" unicode="&#xe612;" 
d="M658 742q-93 0 -169 -48t-113 -128q-33 15 -92 15q-98 0 -166.5 -65.5t-68.5 -159.5q0 -78 49 -137t125 -78l222 320l223 -320q126 4 214 89.5t88 207.5q0 127 -91 215.5t-221 88.5zM563 128l-118 174l-115 -174h51v-102h128v102h54z" />
    <glyph glyph-name="uniE613" unicode="&#xe613;" 
d="M845 282v-282h-666v282h-77v-282v-77h77h666h77v77v282h-77zM259 358l253 -256l256 256h-154v205h154l-253 256h-3l-253 -256h151v-205h-151z" />
    <glyph glyph-name="uniE614" unicode="&#xe614;" 
d="M666 794h-57q-10 33 -36.5 54.5t-60.5 21.5t-60.5 -21.5t-36.5 -54.5h-57v-154h308v154zM742 717v-156h-460v156h-128v-819h716v819h-128zM512 102h-230v52h230v-52zM742 230h-460v52h460v-52zM742 358h-460v52h460v-52z" />
    <glyph glyph-name="uniE615" unicode="&#xe615;" 
d="M512 819q-118 0 -218.5 -58t-158.5 -158.5t-58 -218.5t58 -218.5t158.5 -158.5t218.5 -58t218.5 58t158.5 158.5t58 218.5t-58 218.5t-158.5 158.5t-218.5 58zM640 579q25 0 43 -18.5t18 -43.5t-18 -43t-43 -18t-43 18t-18 43t18 43.5t43 18.5zM384 579q25 0 43 -18.5
t18 -43.5t-18 -43t-43 -18t-43 18t-18 43t18 43.5t43 18.5zM512 46q-128 0 -223 84.5t-112 209.5h670q-17 -125 -112 -209.5t-223 -84.5z" />
    <glyph glyph-name="uniE616" unicode="&#xe616;" 
d="M819 742v-768h-563v-76h640v844h-77zM768 870h-640v-844h640v844zM205 666h230v-52h-230v52zM691 230h-486v52h486v-52zM691 358h-486v52h486v-52zM691 486h-486v52h486v-52z" />
    <glyph glyph-name="uniE617" unicode="&#xe617;" 
d="M663 794q-99 0 -151 -70q-56 70 -151 70q-118 0 -201 -79.5t-83 -192.5q0 -32 9.5 -71t26.5 -64q37 -53 129 -154.5t149.5 -161t79.5 -81.5q15 -16 38 -16t39 16q28 28 82 83.5t147 158t129 155.5q18 24 27 62.5t9 72.5q4 113 -78.5 192.5t-200.5 79.5z" />
    <glyph glyph-name="uniE618" unicode="&#xe618;" 
d="M259 351l320 -325l253 253l-325 325zM942 532l-182 182q-30 31 -72 31t-71 -31l-74 -74l325 -325l72 72q30 30 30.5 72.5t-28.5 72.5zM259 351v-108l212 -217h108q1 0 -79 81t-160 163zM259 77h-205v-51h199h3h143l-140 143v-92z" />
    <glyph glyph-name="uniE619" unicode="&#xe619;" 
d="M730 282q47 0 89 -16v604h-665v-870h307v13q0 111 78.5 190t190.5 79zM230 717h512v-51h-512v51zM230 589h512v-51h-512v51zM230 461h512v-51h-512v51zM230 333h256v-51h-256v51zM868 197l-218 -217l-89 92l-57 -54l146 -146l54 54l218 217z" />
    <glyph glyph-name="uniE61A" unicode="&#xe61a;" 
d="M358 717h-51h-256v-666h256h51h615v666h-615zM307 102h-205v564h205v-564zM640 282l-115 176l2 3h226l2 -3z" />
    <glyph glyph-name="uniE61B" unicode="&#xe61b;" 
d="M358 717h-51h-256v-666h256h51h615v666h-615zM307 102h-205v564h205v-564zM640 282l-115 176l2 3h226l2 -3z" />
    <glyph glyph-name="uniE61C" unicode="&#xe61c;" 
d="M77 742v-742h896v742h-896zM896 77l-184 253l-136 -100l-243 336l-179 -489v589h742v-589z" />
    <glyph glyph-name="uniE61D" unicode="&#xe61d;" 
d="M916 696q-56 57 -135.5 57t-135.5 -57l-415 -422q-33 -33 -33 -79q0 -45 33 -82q34 -34 80 -34q50 0 79 34q0 2 3 2l414 417q10 10 10 25t-10 27q-9 9 -24 9t-24 -9l-418 -420q0 -3 -2 -3q-13 -11 -30.5 -10.5t-28.5 13.5q-13 13 -13 30.5t13 30.5l417 420q36 36 84.5 36
t84.5 -36t36 -87t-36 -87l-414 -417q-57 -57 -136 -57t-135.5 56.5t-56.5 136t56 135.5l417 423q10 9 10 24t-10 27q-10 11 -24 10.5t-24 -10.5l-420 -423q-77 -76 -77 -187q0 -106 77 -186q77 -77 187 -77q106 0 187 77l417 419q56 57 56 136q-3 79 -59 138z" />
    <glyph glyph-name="uniE61E" unicode="&#xe61e;" 
d="M517 881q-102 0 -195 -40t-160 -107t-107 -160t-40 -195t40 -195t107 -160t160 -107t195 -40t195 40t160 107t107 160t40 195t-40 195t-107 160t-160 107t-195 40zM517 -33q-112 0 -207 55t-150 150t-55 207t55 207t150 150t207 55t207 -55t150 -150t55 -207
q0 -111 -55.5 -206t-150.5 -150.5t-206 -55.5zM376 535zM312 535.5q0 26.5 19 45t45.5 18.5t45 -18.5t18.5 -45t-18.5 -45.5t-45 -19t-45.5 19t-19 45.5zM658 535zM594 535.5q0 26.5 18.5 45t45 18.5t45.5 -18.5t19 -45t-19 -45.5t-45.5 -19t-45 19t-18.5 45.5zM517 389
q-98 0 -166.5 -68.5t-68.5 -166.5q0 -12 7 -19t18.5 -7t18.5 7t7 19q0 76 53.5 130t130.5 54t130.5 -54t53.5 -130q0 -12 7.5 -19t19 -7t18.5 7t7 19q0 97 -69.5 166t-166.5 69z" />
    <glyph glyph-name="uniE61F" unicode="&#xe61f;" 
d="M509.5 878q-101.5 0 -194.5 -40t-160.5 -107t-107 -160t-39.5 -195t39.5 -194.5t107 -160t160.5 -107t194.5 -39.5t194.5 39.5t160.5 107t107 160t39.5 194.5q-1 102 -41 195t-107 160t-159.5 107t-194 40zM509 -36q-112 0 -206.5 55t-150 150t-55.5 207t55.5 207
t150 150t207 55t207 -55t150 -150t55.5 -207q-2 -112 -57.5 -207t-150 -150t-205.5 -55zM369 532zM305 532.5q0 26.5 18.5 45t45 18.5t45.5 -18.5t19 -45t-19 -45.5t-45.5 -19t-45 19t-18.5 45.5zM650 532zM586 532.5q0 26.5 19 45t45.5 18.5t45 -18.5t18.5 -45t-18.5 -45.5
t-45 -19t-45.5 19t-19 45.5zM783 297q-9 4 -18.5 -2t-11.5 -16q0 -2 -3 -8t-10.5 -15.5t-19 -18.5t-32 -15.5t-45.5 -6.5q-21 0 -38.5 9t-26.5 18.5t-28 31.5q-16 19 -24.5 28t-26 23t-37.5 20t-45 6q-38 0 -67.5 -12.5t-45 -31.5t-24 -38t-9.5 -36q0 -24 23 -28q24 0 29 23
q0 3 1 8.5t6.5 16.5t14.5 20.5t28 16.5t44 7q22 0 40 -9t27 -18.5t28 -31.5q17 -19 25.5 -28t25.5 -23t36.5 -20t43.5 -6q37 0 67 11t48 27.5t28.5 32.5t14.5 32q8 24 -18 33z" />
    <glyph glyph-name="uniE620" unicode="&#xe620;" 
d="M517 878q-102 0 -195 -40t-160 -107t-107 -160t-40 -195t40 -194.5t107 -160t160 -107t195 -39.5t195 39.5t160 107t107 160t40 194.5q-1 102 -41 195t-107 160t-159.5 107t-194.5 40zM517 -36q-112 0 -207 55t-150 150t-55 207t55 207t150 150t207 55t207 -55t150 -150
t55 -207q-1 -112 -56.5 -207t-150 -150t-205.5 -55zM376 532zM312 532.5q0 26.5 19 45t45.5 18.5t45 -18.5t18.5 -45t-18.5 -45.5t-45 -19t-45.5 19t-19 45.5zM658 532zM594 532.5q0 26.5 18.5 45t45 18.5t45.5 -18.5t19 -45t-19 -45.5t-45.5 -19t-45 19t-18.5 45.5z
M724.5 387q-11.5 0 -18.5 -7.5t-7 -18.5q0 -77 -54 -130.5t-130.5 -53.5t-130.5 53.5t-54 130.5q0 11 -7 18.5t-18.5 7.5t-18.5 -7.5t-7 -18.5q0 -98 69 -167t166.5 -69t166.5 69t69 167q0 11 -7 18.5t-18.5 7.5z" />
    <glyph glyph-name="uniE621" unicode="&#xe621;" 
d="M461 571v-320l238 159zM998 735q0 13 -9.5 23t-23.5 10h-881q-13 0 -23 -10t-10 -23v-648q0 -15 10 -25.5t23 -10.5h879q13 0 23 10t10 23v651h2zM794 709q0 -8 -5.5 -13t-12.5 -5h-44q-6 0 -10.5 5.5t-4.5 12.5v15q0 8 5 13t13 5h43q6 0 11 -5t5 -13v-15zM947 640v-461
h-845v461h845zM640 709q0 -8 -5 -13t-13 -5h-43q-6 0 -11 5.5t-5 12.5v15q0 8 5 13t13 5h44q6 0 10.5 -5t4.5 -13v-15zM486 709q0 -8 -5 -13t-13 -5h-43q-6 0 -10.5 5.5t-4.5 12.5v15q0 8 5 13t13 5h43q6 0 10.5 -5t4.5 -13v-15zM333 709q0 -8 -5 -13t-13 -5h-44
q-6 0 -10.5 5.5t-4.5 12.5v15q0 8 5 13t13 5h43q6 0 11 -5t5 -13v-15zM154 709q0 -8 -5.5 -13t-12.5 -5h-41q-8 0 -13 5t-5 13v15q0 8 5 13t13 5h43q6 0 11 -5t5 -13v-15zM154 120q0 -7 -5.5 -12.5t-12.5 -5.5h-41q-8 0 -13 5.5t-5 12.5v18q0 6 5 11t13 5h43q6 0 11 -5.5
t5 -12.5v-16zM333 120q0 -7 -5 -12.5t-13 -5.5h-44q-7 0 -12.5 5.5t-5.5 12.5v18q0 8 5.5 13t12.5 5h44q8 0 13 -5t5 -13v-18zM486 120q0 -7 -5 -12.5t-13 -5.5h-43q-8 0 -13 5.5t-5 12.5v18q0 8 5 13t13 5h43q8 0 13 -5t5 -13v-18zM640 120q0 -7 -5 -12.5t-13 -5.5h-43
q-8 0 -13 5.5t-5 12.5v18q0 8 5 13t13 5h43q8 0 13 -5t5 -13v-18zM794 120q0 -7 -5.5 -12.5t-12.5 -5.5h-44q-8 0 -13 5.5t-5 12.5v18q0 8 5 13t13 5h44q7 0 12.5 -5t5.5 -13v-18zM973 120q0 -7 -5 -12.5t-13 -5.5h-44q-7 0 -12.5 5.5t-5.5 12.5v18q0 8 5.5 13t12.5 5h44
q8 0 13 -5t5 -13v-18zM973 709q0 -8 -5 -13t-13 -5h-44q-6 0 -10.5 5.5t-4.5 12.5v15q0 8 5 13t13 5h43q6 0 11 -5t5 -13v-15z" />
    <glyph glyph-name="uniE622" unicode="&#xe622;" horiz-adv-x="1027" 
d="M973 271q-21 0 -36 -15t-15 -36v-220h-820v220q0 21 -15 36t-36 15t-36 -15t-15 -36v-264q0 -19 20.5 -38.5t40.5 -19.5h917q20 0 34.5 19.5t14.5 41.5v261q-2 21 -17.5 36t-36.5 15zM481 300l8 -8q3 -3 5 -3q1 0 2.5 -1t2.5 -1q3 0 5 -3q3 0 5 -2h11h10q2 0 5 2q3 0 5 3
q1 0 2.5 1t2.5 1q3 0 3 3l8 8l174 174q15 15 15 35.5t-15.5 36t-38.5 15.5t-38 -16l-90 -84v338q0 21 -15 36t-36 15t-36 -15t-15 -36v-338l-85 87q-15 15 -35.5 15t-36 -15.5t-15.5 -35.5t16 -36z" />
    <glyph glyph-name="uniE623" unicode="&#xe623;" 
d="M507 814q-90 0 -172 -35t-141 -94t-94.5 -141t-35.5 -172.5t35 -172.5t94 -141.5t141 -94.5t173 -35q121 0 222.5 60t159.5 162.5t58 223.5t-59 222t-160 159.5t-221 58.5zM399 481q8 8 18.5 8t17.5 -8l44 -43v171q0 12 7 19t18.5 7t18.5 -7t7 -19v-171l43 43q8 8 18.5 8
t18 -7.5t7.5 -18t-8 -18.5l-84 -87q-3 -2 -5 -2h-3q-2 0 -2 -3h-3h-3h-5h-5h-2h-3q-2 0 -2 3h-3q-1 0 -2.5 1t-2.5 1l-87 87q-6 8 -5.5 18.5t7.5 17.5zM760 187q0 -12 -7 -19t-18 -7h-459q-11 0 -18 7t-7 19v130q0 12 7 19t18.5 7t18.5 -7t7 -19v-105h407v105q0 12 7 19
t18.5 7t18.5 -7t7 -19v-130z" />
    <glyph glyph-name="uniE624" unicode="&#xe624;" 
d="M850 327l-341 347l-338 -347h113v-256h171v171h114v-171h171v256h110z" />
    <glyph glyph-name="uniE625" unicode="&#xe625;" 
d="M253 71h504q-7 104 -53 173t-121 97q45 22 72.5 66t27.5 96q0 73 -52 126.5t-125 53.5q-72 0 -124 -52t-52 -125q0 -53 27 -96.5t73 -65.5q-78 -31 -125.5 -100.5t-51.5 -172.5z" />
    <glyph glyph-name="uniE626" unicode="&#xe626;" 
d="M228 555h540v-86h-540v86zM228 412h540v-312h-540v312zM313 583h85v-57h-85v57zM597 583h86v-57h-86v57zM356 597zM313 597.5q0 17.5 12.5 30t30 12.5t30 -12.5t12.5 -30t-12.5 -30t-30 -12.5t-30 12.5t-12.5 30zM640 597zM597 597.5q0 17.5 12.5 30t30.5 12.5
t30.5 -12.5t12.5 -30t-12.5 -30t-30.5 -12.5t-30.5 12.5t-12.5 30z" />
    <glyph glyph-name="uniE627" unicode="&#xe627;" 
d="M796 640h-568v-398h142v-140l125 140h301v398z" />
    <glyph glyph-name="uniE628" unicode="&#xe628;" 
d="M484 341v262q-108 0 -185 -76.5t-77 -185.5q0 -108 77.5 -184.5t186.5 -76.5t185.5 76.5t76.5 184.5q0 29 -11 74zM540 677v-262l254 74q-26 82 -97.5 135t-156.5 53z" />
    <glyph glyph-name="uniE629" unicode="&#xe629;" 
d="M287 361l-5 -91l179 -179l88 6l165 165l-262 261zM532 606l-40 -40l262 -262l40 40q25 26 28.5 57.5t-17.5 50.5l-165 165q-19 21 -50.5 18t-57.5 -29zM262 148q-10 -35 14 -59.5t60 -14.5l45 3l-116 116z" />
    <glyph glyph-name="uniE62A" unicode="&#xe62a;" 
d="M512 498zM338 498q0 72 51 122.5t123 50.5t123 -50.5t51 -122.5t-51 -123t-123 -51t-123 51t-51 123zM734 270l-68 49q-75 -60 -154 -60q-86 0 -154 54l-68 -57l-25 -185h492z" />
    <glyph glyph-name="uniE62B" unicode="&#xe62b;" 
d="M651 270l-62 51q-61 -51 -139.5 -51t-139.5 51l-65 -51l-23 -170h449zM808 299l-46 37q-27 -23 -62 -32l5 -5l12 -77l5 -37h103zM651 344h12q47 0 81.5 34t34.5 83q0 47 -34 81.5t-82 34.5h-12q17 -38 17 -82q0 -74 -42 -125zM447 489zM287 489q0 66 47 113t113 47
t112.5 -47t46.5 -113t-46.5 -112.5t-112.5 -46.5t-113 46.5t-47 112.5z" />
    <glyph glyph-name="uniE62C" unicode="&#xe62c;" 
d="M341 640h57v-114h-57v114zM626 640h57v-114h-57v114zM740 583v-85h-171v85h-114v-85h-171v85h-56v-455h568v455h-56zM740 242h-456v28h456v-28zM740 356h-456v28h456v-28z" />
    <glyph glyph-name="uniE62D" unicode="&#xe62d;" 
d="M597 640h-25q-3 0 -12.5 11.5t-22.5 23t-25 11.5t-26 -11.5t-24 -23t-13 -11.5h-22v-114h170v114zM654 583v-114h-284v114h-86v-512h456v512h-86zM597 185h-227v28h227v-28zM654 270h-284v29h284v-29zM654 356h-284v28h284v-28z" />
    <glyph glyph-name="uniE62E" unicode="&#xe62e;" 
d="M620 489l-256 -142l-136 114l580 207l-182 -554l-114 102l-85 -88v176z" />
    <glyph glyph-name="uniE62F" unicode="&#xe62f;" 
d="M256 640v-378v-3v-142l134 156h435v367h-569zM711 498h-341v28h341v-28zM711 412h-341v29h341v-29z" />
    <glyph glyph-name="uniE630" unicode="&#xe630;" 
d="M341 498h114v-256h-114v256zM284 185v483h-56v-500v-40h48h549v57h-541zM484 612h113v-370h-113v370zM654 555h114v-313h-114v313z" />
    <glyph glyph-name="uniE631" unicode="&#xe631;" 
d="M228 640v-484h568v484h-568zM597 526h57v-28h-57v28zM424 546q36 0 62 -26t26 -62t-26 -62t-62 -26t-62 26t-26 62t26 62t62 26zM299 242l11 94l34 28q33 -28 77 -28q51 0 77 25l34 -31l11 -85h-244v-3zM711 242h-114v28h114v-28zM711 327h-114v29h114v-29zM711 412h-114
v29h114v-29z" />
    <glyph glyph-name="uniE632" unicode="&#xe632;" 
d="M754 555h-43v-228h-102q0 -42 -27.5 -68t-67 -26t-66.5 26t-27 68h-108v228h-40l-45 -228v-227h568v227zM654 640h-284v-284h284v284zM597 441h-170v28h170v-28zM597 526h-170v29h170v-29z" />
    <glyph glyph-name="uniE633" unicode="&#xe633;" 
d="M816 526q-55 13 -111.5 -3.5t-98.5 -58.5t-60 -100q-18 87 -77 145q-51 52 -119.5 71t-139.5 6q-15 -69 5 -137.5t72 -121.5q45 -44 103.5 -65t118.5 -15v-119h57v122q51 -4 100.5 12.5t84.5 53.5q46 41 62.5 97t2.5 113z" />
    <glyph glyph-name="uniE634" unicode="&#xe634;" 
d="M771 603q-34 34 -85.5 34t-85.5 -34l-259 -259q-20 -20 -20 -51q0 -26 20 -51q20 -20 51.5 -20t51.5 20v3l259 258q6 7 6 16t-6.5 15.5t-15.5 6.5t-16 -6l-259 -259q-18 -14 -37 0q-8 8 -8 19.5t8 20.5l259 259q23 22 54.5 22t54 -22.5t22.5 -54t-23 -54.5l-258 -258
q-35 -34 -86 -34t-85 34t-34 85t34 85l259 259q6 7 6 16t-6.5 15.5t-15.5 6.5t-16 -7l-258 -258q-49 -49 -49 -117t48.5 -116.5t116.5 -48.5t117 48l259 259q34 34 34 86q0 45 -37 82z" />
    <glyph glyph-name="uniE635" unicode="&#xe635;" 
d="M654 697h114v-597h-114v597zM284 612h57v-427h-57v-85h313v597h-313v-85zM256 583h57v-57h-57v57zM256 441h57v-57h-57v57zM256 270h57v-57h-57v57z" />
    <glyph glyph-name="uniE636" unicode="&#xe636;" 
d="M654 668h-370v-483h370v483zM341 555h143v-29h-143v29zM597 270h-256v29h256v-29zM597 356h-256v28h256v-28zM597 441h-256v28h256v-28zM683 555v-399h-285v-85h342v484h-57z" />
    <glyph glyph-name="uniE637" unicode="&#xe637;" 
d="M765 125l-108 344h-3v171q9 0 19 10t10 18.5t-10 18.5t-19 10h-284q-9 0 -19 -10t-10 -18.5t10 -18.5t19 -10v-171h-3l-108 -344q-7 -19 5.5 -36.5t31.5 -17.5h432q19 0 31.5 17.5t5.5 36.5zM427 469v171h170v-171h-170z" />
    <glyph glyph-name="uniE638" unicode="&#xe638;" 
d="M603 620q-109 24 -201 -3t-143 -85q-46 -52 -54 -112t23 -93q18 -21 46 -29t49 -5.5t33 9.5q6 3 18.5 19.5t31.5 34.5t43 28q34 14 107 27.5t78 15.5q-43 -48 -156 -74q-52 -13 -70.5 -41.5t2.5 -55.5q18 -27 71.5 -28.5t87.5 22.5q59 41 162 57q81 13 77 105
q0 25 -11 54t-33.5 59.5t-64.5 56.5t-96 38zM566 210q-5 -6 13.5 -17.5t48 -16t66.5 8.5q20 8 34.5 21t21.5 25t10.5 25t4 18t0.5 8q-34 -9 -94 -23q-25 -5 -51.5 -17t-39.5 -22zM538 199l-15 -3q-9 -2 -11.5 -4.5t0.5 -6.5q26 -26 37 -54q3 -9 8 -13t9 -4t8.5 2.5t6 3.5
t2.5 2q0 3 -11 32q-5 12 -13.5 23.5t-14.5 16.5z" />
    <glyph glyph-name="uniE639" unicode="&#xe639;" 
d="M765 430q0 99 -70 168.5t-169 69.5q-100 0 -169.5 -70t-69.5 -168q0 -57 23 -103v-3q23 -49 77 -114t96.5 -107t42.5 -40q7 6 18.5 16.5t43 42.5t58.5 62.5t55 69.5t41 70v3q23 46 23 103zM523 316q-47 0 -80 33.5t-33 80t33 80t80 33.5t80.5 -33.5t33.5 -79.5
q0 -50 -32.5 -82t-81.5 -32z" />
    <glyph glyph-name="uniE63A" unicode="&#xe63a;" 
d="M620 489l-256 -142l-136 114l580 207l-182 -554l-114 102l-85 -88v176z" />
    <glyph glyph-name="uniE63B" unicode="&#xe63b;" 
d="M256 640v-378v-3v-142l134 156h435v367h-569zM711 498h-341v28h341v-28zM711 412h-341v29h341v-29z" />
    <glyph glyph-name="uniE63C" unicode="&#xe63c;" 
d="M341 498h114v-256h-114v256zM284 185v483h-56v-500v-40h48h549v57h-541zM484 612h113v-370h-113v370zM654 555h114v-313h-114v313z" />
    <glyph glyph-name="uniE63D" unicode="&#xe63d;" 
d="M228 640v-484h568v484h-568zM597 526h57v-28h-57v28zM424 546q36 0 62 -26t26 -62t-26 -62t-62 -26t-62 26t-26 62t26 62t62 26zM299 242l11 94l34 28q33 -28 77 -28q51 0 77 25l34 -31l11 -85h-244v-3zM711 242h-114v28h114v-28zM711 327h-114v29h114v-29zM711 412h-114
v29h114v-29z" />
    <glyph glyph-name="uniE63E" unicode="&#xe63e;" 
d="M754 555h-43v-228h-102q0 -42 -27.5 -68t-67 -26t-66.5 26t-27 68h-108v228h-40l-45 -228v-227h568v227zM654 640h-284v-284h284v284zM597 441h-170v28h170v-28zM597 526h-170v29h170v-29z" />
    <glyph glyph-name="uniE63F" unicode="&#xe63f;" 
d="M816 526q-55 13 -111.5 -3.5t-98.5 -58.5t-60 -100q-18 87 -77 145q-51 52 -119.5 71t-139.5 6q-15 -69 5 -137.5t72 -121.5q45 -44 103.5 -65t118.5 -15v-119h57v122q51 -4 100.5 12.5t84.5 53.5q46 41 62.5 97t2.5 113z" />
    <glyph glyph-name="uniE640" unicode="&#xe640;" 
d="M771 603q-34 34 -85.5 34t-85.5 -34l-259 -259q-20 -20 -20 -51q0 -26 20 -51q20 -20 51.5 -20t51.5 20v3l259 258q6 7 6 16t-6.5 15.5t-15.5 6.5t-16 -6l-259 -259q-18 -14 -37 0q-8 8 -8 19.5t8 20.5l259 259q23 22 54.5 22t54 -22.5t22.5 -54t-23 -54.5l-258 -258
q-35 -34 -86 -34t-85 34t-34 85t34 85l259 259q6 7 6 16t-6.5 15.5t-15.5 6.5t-16 -7l-258 -258q-49 -49 -49 -117t48.5 -116.5t116.5 -48.5t117 48l259 259q34 34 34 86q0 45 -37 82z" />
    <glyph glyph-name="uniE641" unicode="&#xe641;" 
d="M654 697h114v-597h-114v597zM284 612h57v-427h-57v-85h313v597h-313v-85zM256 583h57v-57h-57v57zM256 441h57v-57h-57v57zM256 270h57v-57h-57v57z" />
    <glyph glyph-name="uniE642" unicode="&#xe642;" 
d="M654 668h-370v-483h370v483zM341 555h143v-29h-143v29zM597 270h-256v29h256v-29zM597 356h-256v28h256v-28zM597 441h-256v28h256v-28zM683 555v-399h-285v-85h342v484h-57z" />
    <glyph glyph-name="uniE643" unicode="&#xe643;" 
d="M284 697v-597h456v597h-456zM341 498h171v-29h-171v29zM683 213h-342v29h342v-29zM683 299h-342v28h342v-28zM683 384h-342v28h342v-28z" />
    <glyph glyph-name="uniE644" unicode="&#xe644;" 
d="M765 125l-108 344h-3v171q9 0 19 10t10 18.5t-10 18.5t-19 10h-284q-9 0 -19 -10t-10 -18.5t10 -18.5t19 -10v-171h-3l-108 -344q-7 -19 5.5 -36.5t31.5 -17.5h432q19 0 31.5 17.5t5.5 36.5zM427 469v171h170v-171h-170z" />
    <glyph glyph-name="uniE645" unicode="&#xe645;" 
d="M603 620q-109 24 -201 -3t-143 -85q-46 -52 -54 -112t23 -93q18 -21 46 -29t49 -5.5t33 9.5q6 3 18.5 19.5t31.5 34.5t43 28q34 14 107 27.5t78 15.5q-43 -48 -156 -74q-52 -13 -70.5 -41.5t2.5 -55.5q18 -27 71.5 -28.5t87.5 22.5q59 41 162 57q81 13 77 105
q0 25 -11 54t-33.5 59.5t-64.5 56.5t-96 38zM566 210q-5 -6 13.5 -17.5t48 -16t66.5 8.5q20 8 34.5 21t21.5 25t10.5 25t4 18t0.5 8q-34 -9 -94 -23q-25 -5 -51.5 -17t-39.5 -22zM538 199l-15 -3q-9 -2 -11.5 -4.5t0.5 -6.5q26 -26 37 -54q3 -9 8 -13t9 -4t8.5 2.5t6 3.5
t2.5 2q0 3 -11 32q-5 12 -13.5 23.5t-14.5 16.5z" />
    <glyph glyph-name="uniE646" unicode="&#xe646;" 
d="M765 430q0 99 -70 168.5t-169 69.5q-100 0 -169.5 -70t-69.5 -168q0 -57 23 -103v-3q23 -49 77 -114t96.5 -107t42.5 -40q7 6 18.5 16.5t43 42.5t58.5 62.5t55 69.5t41 70v3q23 46 23 103zM523 316q-47 0 -80 33.5t-33 80t33 80t80 33.5t80.5 -33.5t33.5 -79.5
q0 -50 -32.5 -82t-81.5 -32z" />
    <glyph glyph-name="uniE647" unicode="&#xe647;" 
d="M154 154h128v-205h-128v205zM358 307h128v-358h-128v358zM563 461h128v-512h-128v512zM768 614h128v-665h-128v665zM768 845v-3l36 -36l-167 -166h-220h-7l-18 -18l-315 -312l54 -57l309 310h205h21l7 5l185 185l35 -36h3v128h-128z" />
  </font>
</defs>
</svg>
